<svg width="266" height="239" viewBox="0 0 266 239" fill="none" xmlns="http://www.w3.org/2000/svg">
<g clip-path="url(#clip0_266_5918)">
<path d="M263.832 -12.3611H2.16852V251.361H263.832V-12.3611Z" fill="#F0EAE6"/>
<mask id="mask0_266_5918" style="mask-type:luminance" maskUnits="userSpaceOnUse" x="37" y="35" width="192" height="118">
<path d="M37.7969 35.9088H228.203V152.278H37.7969V35.9088Z" fill="white"/>
</mask>
<g mask="url(#mask0_266_5918)">
<mask id="mask1_266_5918" style="mask-type:luminance" maskUnits="userSpaceOnUse" x="37" y="35" width="192" height="118">
<path d="M37.7969 152.276H228.201V35.9092H37.7969V152.276Z" fill="white"/>
</mask>
<g mask="url(#mask1_266_5918)">
<path d="M131.142 147.829C130.926 147.781 130.664 147.757 130.38 147.708L130.022 147.636C120.803 145.957 91.5776 139.02 77.3335 117.244C70.6656 107.018 68.2619 95.015 67.8556 84.2375C51.324 84.0208 37.7969 88.3909 37.7969 88.3909C37.7969 88.3909 43.5362 127.065 69.8564 143.555C95.0089 159.329 129.902 149.078 132.903 148.166L132.879 148.094C132.879 148.094 132.261 148.022 131.142 147.829Z" fill="#DFCCC0"/>
</g>
<mask id="mask2_266_5918" style="mask-type:luminance" maskUnits="userSpaceOnUse" x="37" y="35" width="192" height="118">
<path d="M37.7969 152.276H228.201V35.9092H37.7969V152.276Z" fill="white"/>
</mask>
<g mask="url(#mask2_266_5918)">
<path d="M104.442 95.2559C104.399 94.752 104.367 94.2472 104.347 93.7418C104.295 92.8711 104.279 91.9986 104.299 91.1266C104.419 82.8198 106.61 74.9707 109.779 67.913C109.181 67.5276 108.611 67.1457 108.014 66.7843C90.6285 56.0309 71.1674 53.605 71.1674 53.605C71.1674 53.605 68.7126 62.0804 67.9751 73.8179C67.7839 76.7945 67.6918 80.0119 67.8078 83.3497C67.8078 83.6353 67.8317 83.9244 67.8556 84.2375C78.6241 84.358 90.6763 86.4226 101.059 92.9263C102.227 93.6696 103.346 94.4404 104.442 95.2559Z" fill="#DFCCC0"/>
</g>
<mask id="mask3_266_5918" style="mask-type:luminance" maskUnits="userSpaceOnUse" x="37" y="35" width="192" height="118">
<path d="M37.7969 152.276H228.201V35.9092H37.7969V152.276Z" fill="white"/>
</mask>
<g mask="url(#mask3_266_5918)">
<path d="M130.022 147.636L130.38 147.708C130.664 147.757 130.927 147.781 131.142 147.829C132.261 148.022 132.879 148.094 132.879 148.094L132.712 147.781L132.64 147.708L132.524 147.564C129.236 144.515 112.585 128.263 106.535 107.018C105.411 103.195 104.709 99.2582 104.442 95.28V95.2559C103.346 94.4404 102.227 93.6696 101.059 92.9263C90.6729 86.4192 78.6207 84.358 67.8557 84.2375C68.2619 95.015 70.6656 107.018 77.3335 117.244C91.5776 139.016 120.803 145.957 130.022 147.636Z" fill="#BEA899"/>
</g>
<mask id="mask4_266_5918" style="mask-type:luminance" maskUnits="userSpaceOnUse" x="37" y="35" width="192" height="118">
<path d="M37.7969 152.276H228.201V35.9092H37.7969V152.276Z" fill="white"/>
</mask>
<g mask="url(#mask4_266_5918)">
<path d="M154.546 62.5793C146.017 46.5921 133.873 35.9075 133.873 35.9075C133.873 35.9075 120.749 46.8329 111.793 63.2744C117.935 65.8931 123.702 69.2069 128.059 73.405C129.998 75.2544 131.688 77.3531 133.084 79.6471C134.57 77.0386 136.424 74.6612 138.588 72.5895C142.876 68.4602 148.52 65.1705 154.546 62.5793ZM133.17 68.443C128.991 68.443 125.604 65.0289 125.604 60.8175C125.604 56.6061 128.991 53.1921 133.17 53.1921C137.348 53.1921 140.736 56.6061 140.736 60.8175C140.736 65.0289 137.348 68.443 133.17 68.443Z" fill="#DFCCC0"/>
</g>
<mask id="mask5_266_5918" style="mask-type:luminance" maskUnits="userSpaceOnUse" x="37" y="35" width="192" height="118">
<path d="M37.7969 152.276H228.201V35.9092H37.7969V152.276Z" fill="white"/>
</mask>
<g mask="url(#mask5_266_5918)">
<path d="M104.347 93.7452C104.371 94.2476 104.395 94.7534 104.442 95.2593C114.064 102.437 120.639 112.661 124.996 122.193C124.7 119.642 124.549 117.077 124.545 114.509C124.545 104.354 127.045 95.2593 129.356 89.0172C128.56 87.4602 127.686 85.9453 126.737 84.4784C122.21 77.5652 116.184 72.1627 109.779 67.913C106.61 74.9741 104.419 82.8232 104.299 91.13C104.279 92.002 104.295 92.8745 104.347 93.7452Z" fill="#BEA899"/>
</g>
<mask id="mask6_266_5918" style="mask-type:luminance" maskUnits="userSpaceOnUse" x="37" y="35" width="192" height="118">
<path d="M37.7969 152.276H228.201V35.9092H37.7969V152.276Z" fill="white"/>
</mask>
<g mask="url(#mask6_266_5918)">
<path d="M104.442 95.2799C104.705 99.3369 105.443 103.249 106.539 107.017C112.589 128.263 129.236 144.515 132.524 147.564L132.644 147.708L132.716 147.781C131.285 145.045 126.522 135.011 125.023 122.213L124.996 122.189C120.639 112.661 114.064 102.458 104.442 95.2799Z" fill="#595959"/>
</g>
<mask id="mask7_266_5918" style="mask-type:luminance" maskUnits="userSpaceOnUse" x="37" y="35" width="192" height="118">
<path d="M37.7969 152.276H228.201V35.9092H37.7969V152.276Z" fill="white"/>
</mask>
<g mask="url(#mask7_266_5918)">
<path d="M163.344 93.7659L163.321 93.9827V94.0068C163.846 93.6214 164.393 93.2635 164.939 92.9263C175.325 86.4192 187.401 84.3545 198.166 84.2341C198.343 79.893 198.224 75.5241 197.811 71.1993C197.404 66.3625 196.672 61.5592 195.619 56.8224V56.7983C195.165 54.7577 194.834 53.605 194.834 53.605L194.451 53.6772C191.642 54.0592 173.826 56.9394 157.844 66.9048C161.224 74.4648 163.536 82.9884 163.416 91.9421C163.416 92.565 163.392 93.1672 163.344 93.7659Z" fill="#DFCCC0"/>
</g>
<mask id="mask8_266_5918" style="mask-type:luminance" maskUnits="userSpaceOnUse" x="37" y="35" width="192" height="118">
<path d="M37.7969 152.276H228.201V35.9092H37.7969V152.276Z" fill="white"/>
</mask>
<g mask="url(#mask8_266_5918)">
<path d="M163.321 94.0068V93.9827L163.344 93.7659C163.392 93.1672 163.416 92.565 163.416 91.9421C163.536 82.9884 161.224 74.4649 157.841 66.9048C157.605 67.0252 157.39 67.1698 157.151 67.3108C150.388 71.6328 144.003 77.228 139.288 84.475C138.479 85.7241 137.717 86.9973 137.024 88.2946V88.3187L136.785 88.7729C139.121 95.015 141.695 104.234 141.695 114.509C141.695 116.907 141.552 119.237 141.313 121.518C145.956 111.629 152.958 101.089 163.321 94.0068Z" fill="#BEA899"/>
</g>
<mask id="mask9_266_5918" style="mask-type:luminance" maskUnits="userSpaceOnUse" x="37" y="35" width="192" height="118">
<path d="M37.7969 152.276H228.201V35.9092H37.7969V152.276Z" fill="white"/>
</mask>
<g mask="url(#mask9_266_5918)">
<path d="M198.166 84.2375L198.142 84.647C197.664 95.3041 195.261 107.138 188.661 117.22C174.062 139.594 143.692 146.294 135.31 147.757C135.048 147.803 134.786 147.843 134.522 147.877C134.23 147.938 133.936 147.986 133.641 148.022L133.497 148.046L133.381 148.07L133.31 148.214C137.427 149.463 171.467 159.016 196.141 143.555C222.462 127.065 228.201 88.3909 228.201 88.3909C228.201 88.3909 214.674 84.0208 198.166 84.2375Z" fill="#DFCCC0"/>
</g>
<mask id="mask10_266_5918" style="mask-type:luminance" maskUnits="userSpaceOnUse" x="37" y="35" width="192" height="118">
<path d="M37.7969 152.276H228.201V35.9092H37.7969V152.276Z" fill="white"/>
</mask>
<g mask="url(#mask10_266_5918)">
<path d="M133.644 148.022C133.859 147.997 134.167 147.949 134.525 147.877C134.74 147.853 135.027 147.805 135.31 147.757C143.696 146.294 174.065 139.594 188.664 117.22C195.264 107.138 197.668 95.3041 198.146 84.647L198.17 84.2375C187.405 84.358 175.328 86.4226 164.942 92.9263C164.388 93.2652 163.847 93.6257 163.321 94.0068C163.096 98.1814 162.386 102.315 161.204 106.322C155.748 125.217 141.647 140.076 135.764 145.692C135.406 146.005 135.099 146.318 134.812 146.556C134.525 146.821 134.286 147.061 134.074 147.254L133.573 147.66L133.381 148.07L133.501 148.046L133.644 148.022Z" fill="#BEA899"/>
</g>
<mask id="mask11_266_5918" style="mask-type:luminance" maskUnits="userSpaceOnUse" x="37" y="35" width="192" height="118">
<path d="M37.7969 152.276H228.201V35.9092H37.7969V152.276Z" fill="white"/>
</mask>
<g mask="url(#mask11_266_5918)">
<path d="M163.321 94.0067C152.958 101.088 145.956 111.629 141.313 121.518C139.906 134.433 135.119 144.684 133.573 147.66L134.071 147.251C134.286 147.061 134.525 146.821 134.808 146.556C135.095 146.315 135.406 146.005 135.761 145.692C141.647 140.076 155.748 125.214 161.2 106.322C162.344 102.386 163.105 98.2805 163.321 94.0067Z" fill="#BDBFC3"/>
</g>
<mask id="mask12_266_5918" style="mask-type:luminance" maskUnits="userSpaceOnUse" x="37" y="35" width="192" height="118">
<path d="M37.7969 152.276H228.201V35.9092H37.7969V152.276Z" fill="white"/>
</mask>
<g mask="url(#mask12_266_5918)">
<path d="M134.808 146.556C135.095 146.315 135.403 146.005 135.761 145.692C141.644 140.073 155.744 125.214 161.2 106.322C162.344 102.386 163.105 98.2805 163.321 94.0067C152.958 101.088 145.956 111.625 141.313 121.518C139.906 134.433 135.119 144.684 133.569 147.66L134.071 147.251C134.286 147.058 134.522 146.821 134.808 146.556Z" fill="#595959"/>
</g>
</g>
<path d="M46.6262 184.602L48.4415 174.287L46.3894 173.359V173.2L50.1254 172.405H50.2043V175.189H50.3095C50.9234 174.499 51.4496 173.951 51.8881 173.545C52.3266 173.138 52.7563 172.847 53.1773 172.67C53.5982 172.493 54.0893 172.405 54.6506 172.405C55.2996 172.405 55.8346 172.652 56.2555 173.147C56.6765 173.642 56.9045 174.323 56.9396 175.189H57.0711C57.685 174.499 58.2112 173.951 58.6497 173.545C59.0882 173.138 59.5135 172.847 59.9257 172.67C60.3379 172.493 60.8334 172.405 61.4122 172.405C62.2015 172.405 62.8154 172.758 63.2539 173.465C63.6924 174.172 63.8064 175.127 63.5959 176.329L62.6751 181.447C62.5874 181.977 62.5698 182.357 62.6225 182.587C62.6751 182.817 62.8242 182.932 63.0697 182.932C63.3679 182.932 63.6924 182.768 64.0432 182.441C64.394 182.114 64.7272 181.615 65.043 180.943L65.385 181.102C64.8763 182.428 64.3282 183.387 63.7406 183.979C63.153 184.571 62.5523 184.867 61.9384 184.867C61.3245 184.867 60.9036 184.629 60.6755 184.152C60.4475 183.674 60.4037 183.038 60.544 182.242L61.5701 176.409C61.6753 175.79 61.6183 175.237 61.3991 174.751C61.1798 174.265 60.7194 174.022 60.0178 174.022C59.6319 174.022 59.2504 174.15 58.8733 174.407C58.4962 174.663 58.1323 174.972 57.7815 175.335C57.4307 175.697 57.115 176.037 56.8343 176.356L55.361 184.602H53.3614L54.8085 176.409C54.9137 175.79 54.8567 175.237 54.6375 174.751C54.4182 174.265 53.9578 174.022 53.2562 174.022C52.8703 174.022 52.4845 174.155 52.0986 174.42C51.7127 174.685 51.34 174.999 50.9804 175.361C50.6209 175.724 50.3008 176.073 50.0201 176.409L48.6257 184.602H46.6262ZM70.9629 169.09C70.5595 169.09 70.2087 168.94 69.9105 168.639C69.6123 168.339 69.4633 167.985 69.4633 167.579C69.4633 167.172 69.6123 166.818 69.9105 166.518C70.2087 166.217 70.5595 166.067 70.9629 166.067C71.3663 166.067 71.7171 166.217 72.0153 166.518C72.3135 166.818 72.4626 167.172 72.4626 167.579C72.4626 167.985 72.3135 168.339 72.0153 168.639C71.7171 168.94 71.3663 169.09 70.9629 169.09ZM69.0949 184.867C68.481 184.867 68.0601 184.629 67.8321 184.152C67.604 183.674 67.5602 183.038 67.7005 182.242L69.0949 174.261L66.806 173.359V173.2L71.3576 172.405H71.4365L69.8316 181.447C69.7439 181.977 69.7264 182.357 69.779 182.587C69.8316 182.817 69.9807 182.932 70.2262 182.932C70.5244 182.932 70.8489 182.768 71.1997 182.441C71.5505 182.114 71.8837 181.615 72.1995 180.943L72.5415 181.102C72.0328 182.428 71.4847 183.387 70.8971 183.979C70.3096 184.571 69.7088 184.867 69.0949 184.867ZM74.4891 184.602L76.3044 174.287L74.2523 173.359V173.2L77.9883 172.405H78.0672V175.189H78.1724C78.7863 174.499 79.33 173.951 79.8036 173.545C80.2772 173.138 80.7332 172.847 81.1717 172.67C81.6102 172.493 82.1189 172.405 82.6977 172.405C83.5571 172.405 84.2193 172.758 84.6841 173.465C85.1489 174.172 85.276 175.127 85.0656 176.329L84.1447 181.447C84.057 181.977 84.0439 182.357 84.1053 182.587C84.1666 182.817 84.3114 182.932 84.5394 182.932C84.8375 182.932 85.162 182.768 85.5128 182.441C85.8636 182.114 86.1969 181.615 86.5126 180.943L86.8546 181.102C86.346 182.428 85.7979 183.387 85.2103 183.979C84.6227 184.571 84.0219 184.867 83.4081 184.867C82.7942 184.867 82.3732 184.629 82.1452 184.152C81.9172 183.674 81.8733 183.038 82.0136 182.242L83.0397 176.409C83.1274 175.79 83.0529 175.237 82.8161 174.751C82.5793 174.265 82.075 174.022 81.3033 174.022C80.9174 174.022 80.5184 174.155 80.1062 174.42C79.694 174.685 79.295 174.999 78.9091 175.361C78.5232 175.724 78.1812 176.073 77.883 176.409L76.4886 184.602H74.4891ZM90.67 184.867C89.9685 184.867 89.4028 184.563 88.9731 183.953C88.5433 183.343 88.3285 182.428 88.3285 181.208C88.3285 180.112 88.4995 179.043 88.8415 178C89.1835 176.957 89.6571 176.011 90.2622 175.162C90.8674 174.314 91.5646 173.642 92.3539 173.147C93.1432 172.652 93.9851 172.405 94.8796 172.405C95.511 172.405 96.1162 172.519 96.695 172.749L97.7737 166.571L95.4847 165.669V165.51L100.036 164.715H100.115L97.1949 181.447C97.1072 181.977 97.0896 182.357 97.1422 182.587C97.1949 182.817 97.3439 182.932 97.5895 182.932C97.8877 182.932 98.2122 182.768 98.563 182.441C98.9138 182.114 99.247 181.615 99.5627 180.943L99.9048 181.102C99.3961 182.428 98.848 183.387 98.2604 183.979C97.6728 184.571 97.0721 184.867 96.4582 184.867C95.8443 184.867 95.4233 184.629 95.1953 184.152C94.9673 183.674 94.9235 183.038 95.0638 182.242L95.1953 181.553H95.0901C93.6167 183.763 92.1434 184.867 90.67 184.867ZM90.328 180.174C90.328 181.288 90.4508 182.057 90.6964 182.481C90.9419 182.905 91.3453 183.117 91.9066 183.117C92.4153 183.117 92.9853 182.857 93.6167 182.335C94.2482 181.814 94.8445 181.12 95.4058 180.254L96.3529 174.818C95.9846 174.323 95.6294 173.969 95.2874 173.757C94.9454 173.545 94.5551 173.439 94.1166 173.439C93.415 173.439 92.7792 173.748 92.2092 174.367C91.6391 174.986 91.1831 175.803 90.8411 176.82C90.499 177.836 90.328 178.954 90.328 180.174ZM98.5107 190.966C98.1073 190.966 97.7916 190.874 97.5636 190.688C97.3356 190.502 97.2215 190.295 97.2215 190.065C97.2215 189.906 97.2742 189.72 97.3794 189.508L97.7477 188.712H97.9056L98.4055 189.004C98.6686 189.163 99.0281 189.243 99.4842 189.243C100.273 189.243 100.892 188.854 101.339 188.076C101.786 187.298 102.106 186.291 102.299 185.053L103.931 173.836H101.852V172.67H104.088L104.246 171.609C104.299 171.256 104.457 170.796 104.72 170.23C104.983 169.665 105.334 169.068 105.772 168.44C106.211 167.813 106.715 167.216 107.285 166.65C107.855 166.085 108.469 165.621 109.127 165.258C109.784 164.896 110.464 164.715 111.166 164.715C111.324 164.715 111.49 164.737 111.666 164.781C111.841 164.825 111.981 164.874 112.087 164.927C112.315 165.051 112.472 165.161 112.56 165.258C112.648 165.356 112.692 165.466 112.692 165.59C112.692 165.66 112.67 165.753 112.626 165.868C112.582 165.983 112.534 166.085 112.481 166.173L112.06 166.969H111.876L111.271 166.677C110.832 166.483 110.306 166.385 109.692 166.385C108.78 166.385 108.052 166.774 107.509 167.552C106.965 168.33 106.605 169.329 106.43 170.548L106.114 172.67H109.087V173.836H105.956L104.457 184.045C104.404 184.381 104.264 184.837 104.036 185.411C103.808 185.986 103.505 186.591 103.128 187.227C102.751 187.864 102.321 188.465 101.839 189.031C101.357 189.596 100.835 190.06 100.273 190.423C99.7122 190.785 99.1246 190.966 98.5107 190.966ZM113.086 184.867C112.437 184.867 111.906 184.611 111.494 184.098C111.082 183.586 110.875 182.888 110.875 182.004C110.875 181.827 110.889 181.65 110.915 181.473C110.941 181.297 110.963 181.12 110.981 180.943L112.165 174.287L110.113 173.359V173.2L114.322 172.405H114.427L113.059 180.519C112.989 180.961 112.954 181.279 112.954 181.473C112.954 181.968 113.072 182.388 113.309 182.733C113.546 183.078 113.936 183.25 114.48 183.25C114.848 183.25 115.221 183.117 115.598 182.852C115.975 182.587 116.339 182.269 116.69 181.898C117.041 181.526 117.356 181.182 117.637 180.863L118.768 174.287L116.953 173.359V173.2L120.952 172.405H121.057L119.479 181.447C119.391 181.977 119.378 182.357 119.439 182.587C119.501 182.817 119.663 182.932 119.926 182.932C120.224 182.932 120.549 182.768 120.899 182.441C121.25 182.114 121.584 181.615 121.899 180.943L122.241 181.102C121.733 182.428 121.185 183.387 120.597 183.979C120.009 184.571 119.409 184.867 118.795 184.867C118.181 184.867 117.764 184.629 117.545 184.152C117.326 183.674 117.278 183.038 117.4 182.242L117.427 182.083H117.348C116.751 182.755 116.234 183.294 115.795 183.701C115.357 184.107 114.932 184.403 114.519 184.589C114.107 184.775 113.629 184.867 113.086 184.867ZM125.266 184.867C124.652 184.867 124.231 184.629 124.003 184.152C123.775 183.674 123.731 183.038 123.872 182.242L126.582 166.571L124.293 165.669V165.51L128.844 164.715H128.923L126.003 181.447C125.915 181.977 125.898 182.357 125.95 182.587C126.003 182.817 126.152 182.932 126.397 182.932C126.696 182.932 127.02 182.768 127.371 182.441C127.722 182.114 128.055 181.615 128.371 180.943L128.713 181.102C128.204 182.428 127.656 183.387 127.068 183.979C126.481 184.571 125.88 184.867 125.266 184.867ZM132.028 184.867C131.414 184.867 130.993 184.629 130.765 184.152C130.537 183.674 130.493 183.038 130.633 182.242L133.343 166.571L131.054 165.669V165.51L135.606 164.715H135.685L132.764 181.447C132.677 181.977 132.659 182.357 132.712 182.587C132.764 182.817 132.913 182.932 133.159 182.932C133.457 182.932 133.782 182.768 134.132 182.441C134.483 182.114 134.816 181.615 135.132 180.943L135.474 181.102C134.966 182.428 134.417 183.387 133.83 183.979C133.242 184.571 132.642 184.867 132.028 184.867ZM136 190.966C135.509 190.966 135.264 190.71 135.264 190.197V188.925L135.448 188.765H136.711C137.149 188.765 137.496 188.748 137.75 188.712C138.004 188.677 138.223 188.589 138.408 188.447C138.592 188.306 138.794 188.08 139.013 187.771C139.232 187.462 139.508 187.024 139.842 186.458L141.078 184.443L138.815 174.208L136.579 173.359V173.2L140.473 172.405H140.552L142.551 181.818H142.657L144.551 178.689C145.13 177.734 145.507 177.005 145.682 176.501C145.858 175.998 145.945 175.578 145.945 175.242C145.945 174.959 145.875 174.734 145.735 174.566C145.595 174.398 145.419 174.252 145.209 174.128L144.867 173.916V173.81L145.288 173.014C145.428 172.767 145.546 172.603 145.643 172.524C145.739 172.444 145.884 172.405 146.077 172.405C146.375 172.405 146.643 172.515 146.879 172.736C147.116 172.957 147.3 173.231 147.432 173.558C147.563 173.885 147.629 174.199 147.629 174.499C147.629 174.924 147.476 175.441 147.169 176.051C146.862 176.661 146.384 177.496 145.735 178.556L140.657 186.697C140.412 187.104 140.21 187.44 140.052 187.705C139.894 187.97 139.732 188.235 139.565 188.5C139.399 188.765 139.157 189.084 138.842 189.455C138.403 189.968 137.93 190.348 137.421 190.595C136.912 190.843 136.439 190.966 136 190.966ZM159.337 184.867C157.986 184.867 156.995 184.492 156.364 183.74C155.733 182.989 155.417 181.968 155.417 180.678C155.417 179.635 155.588 178.623 155.93 177.642C156.272 176.661 156.745 175.777 157.351 174.99C157.956 174.203 158.657 173.576 159.455 173.107C160.253 172.639 161.117 172.405 162.047 172.405C162.924 172.405 163.586 172.608 164.033 173.014C164.48 173.421 164.704 173.898 164.704 174.446C164.704 175.047 164.494 175.6 164.073 176.104C163.652 176.607 162.919 177.067 161.876 177.483C160.832 177.898 159.363 178.265 157.469 178.583C157.434 178.937 157.416 179.308 157.416 179.697C157.416 180.775 157.644 181.632 158.1 182.269C158.556 182.905 159.276 183.223 160.258 183.223C160.837 183.223 161.407 183.064 161.968 182.746C162.529 182.428 163.108 181.906 163.704 181.182H163.757L164.02 181.394C163.424 182.437 162.709 183.276 161.876 183.913C161.043 184.549 160.196 184.867 159.337 184.867ZM161.336 173.333C160.389 173.333 159.587 173.726 158.929 174.513C158.271 175.299 157.829 176.338 157.601 177.628C158.916 177.399 159.942 177.151 160.679 176.886C161.415 176.621 161.933 176.307 162.231 175.945C162.529 175.582 162.678 175.127 162.678 174.579C162.678 174.225 162.564 173.929 162.336 173.691C162.108 173.452 161.775 173.333 161.336 173.333ZM170.913 184.602L168.571 174.155L166.335 173.359V173.2L170.229 172.405H170.308L172.307 181.659H172.413L174.386 178.689C175 177.752 175.373 177.027 175.504 176.515C175.636 176.002 175.701 175.578 175.701 175.242C175.701 174.959 175.631 174.734 175.491 174.566C175.351 174.398 175.175 174.252 174.965 174.128L174.623 173.916V173.81L175.044 173.014C175.184 172.767 175.302 172.603 175.399 172.524C175.495 172.444 175.64 172.405 175.833 172.405C176.114 172.405 176.372 172.519 176.609 172.749C176.846 172.979 177.034 173.253 177.175 173.571C177.315 173.89 177.385 174.199 177.385 174.499C177.385 174.924 177.245 175.445 176.964 176.064C176.684 176.683 176.193 177.513 175.491 178.556L171.466 184.602H170.913ZM183.015 184.867C181.489 184.867 180.362 184.39 179.634 183.436C178.906 182.481 178.543 181.244 178.543 179.723C178.543 178.892 178.692 178.048 178.99 177.191C179.288 176.333 179.718 175.542 180.279 174.818C180.84 174.093 181.507 173.509 182.279 173.068C183.05 172.626 183.901 172.405 184.831 172.405C186.357 172.405 187.483 172.882 188.211 173.836C188.939 174.791 189.303 176.029 189.303 177.549C189.303 178.344 189.159 179.171 188.869 180.028C188.58 180.886 188.159 181.681 187.606 182.415C187.054 183.148 186.392 183.74 185.62 184.191C184.848 184.642 183.98 184.867 183.015 184.867ZM183.305 183.86C184.059 183.86 184.717 183.564 185.278 182.972C185.839 182.379 186.269 181.593 186.567 180.612C186.865 179.63 187.014 178.556 187.014 177.39C187.014 176.082 186.843 175.087 186.501 174.407C186.159 173.726 185.523 173.386 184.594 173.386C183.857 173.386 183.204 173.655 182.634 174.194C182.064 174.734 181.621 175.481 181.305 176.435C180.989 177.39 180.831 178.512 180.831 179.803C180.831 181.111 181.007 182.114 181.358 182.812C181.708 183.511 182.357 183.86 183.305 183.86ZM193.249 184.867C192.635 184.867 192.214 184.629 191.986 184.152C191.758 183.674 191.714 183.038 191.855 182.242L194.564 166.571L192.275 165.669V165.51L196.827 164.715H196.906L193.986 181.447C193.898 181.977 193.88 182.357 193.933 182.587C193.986 182.817 194.135 182.932 194.38 182.932C194.678 182.932 195.003 182.768 195.354 182.441C195.705 182.114 196.038 181.615 196.353 180.943L196.696 181.102C196.187 182.428 195.639 183.387 195.051 183.979C194.464 184.571 193.863 184.867 193.249 184.867ZM202.536 184.602L200.195 174.155L197.958 173.359V173.2L201.852 172.405H201.931L203.931 181.659H204.036L206.009 178.689C206.623 177.752 206.996 177.027 207.127 176.515C207.259 176.002 207.325 175.578 207.325 175.242C207.325 174.959 207.254 174.734 207.114 174.566C206.974 174.398 206.798 174.252 206.588 174.128L206.246 173.916V173.81L206.667 173.014C206.807 172.767 206.925 172.603 207.022 172.524C207.118 172.444 207.263 172.405 207.456 172.405C207.737 172.405 207.995 172.519 208.232 172.749C208.469 172.979 208.658 173.253 208.798 173.571C208.938 173.89 209.008 174.199 209.008 174.499C209.008 174.924 208.868 175.445 208.587 176.064C208.307 176.683 207.816 177.513 207.114 178.556L203.089 184.602H202.536ZM214.086 184.867C212.735 184.867 211.744 184.492 211.113 183.74C210.481 182.989 210.166 181.968 210.166 180.678C210.166 179.635 210.337 178.623 210.679 177.642C211.021 176.661 211.494 175.777 212.099 174.99C212.705 174.203 213.406 173.576 214.204 173.107C215.002 172.639 215.866 172.405 216.796 172.405C217.673 172.405 218.335 172.608 218.782 173.014C219.229 173.421 219.453 173.898 219.453 174.446C219.453 175.047 219.243 175.6 218.822 176.104C218.401 176.607 217.668 177.067 216.625 177.483C215.581 177.898 214.112 178.265 212.218 178.583C212.183 178.937 212.165 179.308 212.165 179.697C212.165 180.775 212.393 181.632 212.849 182.269C213.305 182.905 214.024 183.223 215.007 183.223C215.585 183.223 216.156 183.064 216.717 182.746C217.278 182.428 217.857 181.906 218.453 181.182H218.506L218.769 181.394C218.173 182.437 217.458 183.276 216.625 183.913C215.792 184.549 214.945 184.867 214.086 184.867ZM216.085 173.333C215.138 173.333 214.336 173.726 213.678 174.513C213.02 175.299 212.577 176.338 212.349 177.628C213.665 177.399 214.691 177.151 215.428 176.886C216.164 176.621 216.682 176.307 216.98 175.945C217.278 175.582 217.427 175.127 217.427 174.579C217.427 174.225 217.313 173.929 217.085 173.691C216.857 173.452 216.524 173.333 216.085 173.333Z" fill="#595959"/>
<path d="M73.734 201.081C73.3798 201.081 73.0551 201.014 72.76 200.879C72.4648 200.744 72.207 200.558 71.9864 200.32C71.7658 200.082 71.5949 199.81 71.4737 199.503C71.3525 199.196 71.292 198.87 71.292 198.526C71.292 198.062 71.3945 197.64 71.5995 197.258C71.8046 196.876 72.0904 196.572 72.4571 196.346C72.8237 196.121 73.2462 196.008 73.7247 196.008C74.1783 196.008 74.5791 196.113 74.9271 196.323C75.275 196.533 75.5329 196.816 75.7007 197.173L75.0855 197.37C74.9488 197.12 74.7577 196.924 74.5123 196.783C74.2668 196.642 73.995 196.572 73.6967 196.572C73.3736 196.572 73.0784 196.656 72.8113 196.825C72.5441 196.995 72.3312 197.226 72.1728 197.521C72.0143 197.815 71.9351 198.15 71.9351 198.526C71.9351 198.895 72.0159 199.23 72.1774 199.531C72.339 199.832 72.5534 200.071 72.8206 200.25C73.0878 200.428 73.3829 200.517 73.706 200.517C73.9173 200.517 74.1208 200.48 74.3166 200.405C74.5123 200.329 74.6832 200.228 74.8292 200.099C74.9752 199.971 75.0731 199.832 75.1228 199.681L75.7473 199.869C75.6603 200.101 75.5158 200.309 75.3139 200.494C75.1119 200.679 74.8758 200.823 74.6055 200.926C74.3352 201.029 74.0447 201.081 73.734 201.081ZM78.7673 201.081C78.4193 201.081 78.0977 201.014 77.8026 200.879C77.5074 200.744 77.2527 200.56 77.0383 200.325C76.8239 200.09 76.6577 199.821 76.5396 199.517C76.4216 199.213 76.3625 198.892 76.3625 198.554C76.3625 198.203 76.4216 197.876 76.5396 197.572C76.6577 197.269 76.8255 196.999 77.0429 196.764C77.2604 196.53 77.5167 196.345 77.8119 196.21C78.1071 196.075 78.4286 196.008 78.7766 196.008C79.1246 196.008 79.4446 196.075 79.7366 196.21C80.0287 196.345 80.2835 196.53 80.5009 196.764C80.7184 196.999 80.8862 197.269 81.0043 197.572C81.1223 197.876 81.1814 198.203 81.1814 198.554C81.1814 198.892 81.1223 199.213 81.0043 199.517C80.8862 199.821 80.72 200.09 80.5056 200.325C80.2912 200.56 80.0365 200.744 79.7413 200.879C79.4461 201.014 79.1215 201.081 78.7673 201.081ZM77.0057 198.563C77.0057 198.927 77.0849 199.257 77.2433 199.554C77.4018 199.852 77.6146 200.087 77.8818 200.259C78.149 200.431 78.4442 200.517 78.7673 200.517C79.0904 200.517 79.3856 200.43 79.6528 200.254C79.92 200.079 80.1343 199.839 80.2959 199.536C80.4574 199.232 80.5382 198.902 80.5382 198.545C80.5382 198.181 80.4574 197.849 80.2959 197.549C80.1343 197.248 79.92 197.01 79.6528 196.835C79.3856 196.659 79.0904 196.572 78.7673 196.572C78.4442 196.572 78.1506 196.663 77.8865 196.844C77.6224 197.026 77.4096 197.265 77.248 197.563C77.0864 197.86 77.0057 198.194 77.0057 198.563ZM86.3262 200.987H85.6923V198.253C85.6923 197.677 85.6085 197.256 85.4407 196.99C85.2729 196.724 85.0088 196.591 84.6484 196.591C84.3999 196.591 84.1544 196.652 83.9121 196.774C83.6697 196.896 83.4569 197.062 83.2736 197.272C83.0903 197.481 82.9583 197.721 82.8775 197.99V200.987H82.2437V196.093H82.8215V197.201C82.952 196.963 83.1229 196.755 83.3342 196.577C83.5455 196.398 83.7847 196.259 84.0519 196.158C84.3191 196.058 84.5956 196.008 84.8814 196.008C85.1486 196.008 85.3754 196.058 85.5619 196.158C85.7483 196.259 85.8974 196.401 86.0093 196.586C86.1211 196.771 86.2019 196.993 86.2516 197.253C86.3013 197.513 86.3262 197.802 86.3262 198.122V200.987ZM91.7602 200.987H91.1264V198.253C91.1264 197.677 91.0425 197.256 90.8748 196.99C90.707 196.724 90.4429 196.591 90.0825 196.591C89.834 196.591 89.5885 196.652 89.3462 196.774C89.1038 196.896 88.891 197.062 88.7077 197.272C88.5244 197.481 88.3923 197.721 88.3116 197.99V200.987H87.6777V196.093H88.2556V197.201C88.3861 196.963 88.557 196.755 88.7683 196.577C88.9795 196.398 89.2188 196.259 89.486 196.158C89.7532 196.058 90.0297 196.008 90.3155 196.008C90.5827 196.008 90.8095 196.058 90.9959 196.158C91.1824 196.259 91.3315 196.401 91.4433 196.586C91.5552 196.771 91.636 196.993 91.6857 197.253C91.7354 197.513 91.7602 197.802 91.7602 198.122V200.987ZM95.209 201.081C94.861 201.081 94.5379 201.014 94.2396 200.879C93.9414 200.744 93.6835 200.56 93.466 200.325C93.2485 200.09 93.0792 199.819 92.958 199.512C92.8369 199.205 92.7763 198.877 92.7763 198.526C92.7763 198.069 92.8804 197.649 93.0885 197.267C93.2967 196.885 93.5841 196.58 93.9507 196.351C94.3173 196.122 94.7336 196.008 95.1997 196.008C95.6781 196.008 96.096 196.124 96.4533 196.356C96.8106 196.587 97.0918 196.893 97.2969 197.272C97.5019 197.651 97.6044 198.065 97.6044 198.516C97.6044 198.566 97.6044 198.615 97.6044 198.662C97.6044 198.709 97.5951 198.77 97.5951 198.77H93.4381C93.4691 199.121 93.567 199.432 93.7317 199.705C93.8963 199.977 94.1107 200.193 94.3748 200.353C94.6389 200.513 94.9263 200.593 95.237 200.593C95.5539 200.593 95.8537 200.511 96.1364 200.348C96.4191 200.185 96.6164 199.972 96.7283 199.709L97.2782 199.86C97.1788 200.091 97.0266 200.301 96.8215 200.489C96.6164 200.677 96.3757 200.823 96.0991 200.926C95.8226 201.029 95.5259 201.081 95.209 201.081ZM93.4194 198.31H97.0079C96.9831 197.953 96.8883 197.64 96.7236 197.37C96.559 197.101 96.3446 196.89 96.0805 196.736C95.8164 196.583 95.5259 196.506 95.209 196.506C94.8921 196.506 94.6032 196.583 94.3422 196.736C94.0812 196.89 93.8684 197.103 93.7037 197.375C93.539 197.647 93.4443 197.959 93.4194 198.31ZM100.689 201.081C100.335 201.081 100.011 201.014 99.7154 200.879C99.4202 200.744 99.1623 200.558 98.9417 200.32C98.7211 200.082 98.5503 199.81 98.4291 199.503C98.3079 199.196 98.2473 198.87 98.2473 198.526C98.2473 198.062 98.3499 197.64 98.5549 197.258C98.76 196.876 99.0458 196.572 99.4124 196.346C99.7791 196.121 100.202 196.008 100.68 196.008C101.134 196.008 101.534 196.113 101.882 196.323C102.23 196.533 102.488 196.816 102.656 197.173L102.041 197.37C101.904 197.12 101.713 196.924 101.468 196.783C101.222 196.642 100.95 196.572 100.652 196.572C100.329 196.572 100.034 196.656 99.7666 196.825C99.4994 196.995 99.2866 197.226 99.1282 197.521C98.9697 197.815 98.8905 198.15 98.8905 198.526C98.8905 198.895 98.9713 199.23 99.1328 199.531C99.2944 199.832 99.5088 200.071 99.776 200.25C100.043 200.428 100.338 200.517 100.661 200.517C100.873 200.517 101.076 200.48 101.272 200.405C101.468 200.329 101.639 200.228 101.785 200.099C101.931 199.971 102.028 199.832 102.078 199.681L102.703 199.869C102.616 200.101 102.471 200.309 102.269 200.494C102.067 200.679 101.831 200.823 101.561 200.926C101.291 201.029 101 201.081 100.689 201.081ZM106.03 200.752C105.981 200.771 105.903 200.805 105.797 200.856C105.692 200.906 105.564 200.949 105.415 200.987C105.266 201.025 105.104 201.043 104.93 201.043C104.75 201.043 104.581 201.009 104.422 200.94C104.264 200.871 104.138 200.766 104.045 200.625C103.952 200.484 103.905 200.311 103.905 200.104V196.6H103.234V196.093H103.905V194.439H104.539V196.093H105.657V196.6H104.539V199.926C104.551 200.101 104.615 200.232 104.73 200.32C104.845 200.408 104.977 200.452 105.126 200.452C105.3 200.452 105.459 200.422 105.602 200.362C105.744 200.303 105.863 200.236 105.863 200.236L106.03 200.752ZM115.053 196.093H115.677L113.59 200.987H113.04L112.024 198.554L111.017 200.987H110.467L108.379 196.093H108.994L110.765 200.329L111.66 198.122L110.84 196.102H111.408L112.024 197.69L112.648 196.102H113.207L112.396 198.122L113.291 200.329L115.053 196.093ZM116.516 200.987V196.093H117.15V200.987H116.516ZM116.516 195.069V194.129H117.15V195.069H116.516ZM120.878 200.752C120.829 200.771 120.751 200.805 120.645 200.856C120.54 200.906 120.412 200.949 120.263 200.987C120.114 201.025 119.953 201.043 119.779 201.043C119.598 201.043 119.429 201.009 119.271 200.94C119.112 200.871 118.986 200.766 118.893 200.625C118.8 200.484 118.753 200.311 118.753 200.104V196.6H118.082V196.093H118.753V194.439H119.387V196.093H120.506V196.6H119.387V199.926C119.4 200.101 119.463 200.232 119.578 200.32C119.693 200.408 119.825 200.452 119.974 200.452C120.148 200.452 120.307 200.422 120.45 200.362C120.593 200.303 120.711 200.236 120.711 200.236L120.878 200.752ZM125.753 200.987H125.12V198.253C125.12 197.702 125.023 197.287 124.831 197.009C124.638 196.73 124.362 196.591 124.001 196.591C123.765 196.591 123.53 196.652 123.297 196.774C123.064 196.896 122.859 197.062 122.682 197.272C122.505 197.481 122.379 197.721 122.305 197.99V200.987H121.671V194.129H122.305V197.201C122.497 196.838 122.766 196.548 123.111 196.332C123.456 196.116 123.824 196.008 124.215 196.008C124.495 196.008 124.733 196.058 124.929 196.158C125.124 196.259 125.283 196.404 125.404 196.595C125.525 196.786 125.614 197.009 125.67 197.262C125.725 197.516 125.753 197.802 125.753 198.122V200.987ZM129.51 202.49C129.597 202.496 129.681 202.501 129.762 202.504C129.842 202.507 129.939 202.49 129.939 202.49C130.013 202.478 130.085 202.434 130.153 202.359C130.222 202.283 130.302 202.139 130.395 201.926C130.489 201.714 130.619 201.4 130.787 200.987L128.671 196.093H129.342L131.123 200.329L132.763 196.093H133.397L130.88 202.406C130.837 202.525 130.771 202.636 130.684 202.739C130.597 202.842 130.49 202.924 130.363 202.983C130.235 203.043 130.079 203.076 129.892 203.082C129.836 203.088 129.779 203.09 129.72 203.087C129.661 203.084 129.591 203.076 129.51 203.063V202.49ZM136.174 201.081C135.826 201.081 135.505 201.014 135.21 200.879C134.915 200.744 134.66 200.56 134.445 200.325C134.231 200.09 134.065 199.821 133.947 199.517C133.829 199.213 133.77 198.892 133.77 198.554C133.77 198.203 133.829 197.876 133.947 197.572C134.065 197.269 134.233 196.999 134.45 196.764C134.668 196.53 134.924 196.345 135.219 196.21C135.514 196.075 135.836 196.008 136.184 196.008C136.532 196.008 136.852 196.075 137.144 196.21C137.436 196.345 137.691 196.53 137.908 196.764C138.126 196.999 138.293 197.269 138.411 197.572C138.53 197.876 138.589 198.203 138.589 198.554C138.589 198.892 138.53 199.213 138.411 199.517C138.293 199.821 138.127 200.09 137.913 200.325C137.698 200.56 137.444 200.744 137.148 200.879C136.853 201.014 136.529 201.081 136.174 201.081ZM134.413 198.563C134.413 198.927 134.492 199.257 134.651 199.554C134.809 199.852 135.022 200.087 135.289 200.259C135.556 200.431 135.851 200.517 136.174 200.517C136.498 200.517 136.793 200.43 137.06 200.254C137.327 200.079 137.542 199.839 137.703 199.536C137.865 199.232 137.945 198.902 137.945 198.545C137.945 198.181 137.865 197.849 137.703 197.549C137.542 197.248 137.327 197.01 137.06 196.835C136.793 196.659 136.498 196.572 136.174 196.572C135.851 196.572 135.558 196.663 135.294 196.844C135.03 197.026 134.817 197.265 134.655 197.563C134.494 197.86 134.413 198.194 134.413 198.563ZM139.604 198.967V196.093H140.238V198.855C140.238 199.412 140.333 199.828 140.522 200.104C140.712 200.38 140.993 200.517 141.366 200.517C141.614 200.517 141.855 200.463 142.088 200.353C142.321 200.243 142.528 200.087 142.708 199.883C142.888 199.68 143.025 199.443 143.118 199.174V196.093H143.752V200.217C143.752 200.304 143.771 200.369 143.808 200.409C143.845 200.45 143.901 200.474 143.976 200.48V200.987C143.901 200.993 143.799 201.001 143.799 201.001L143.677 201.006C143.553 200.993 143.446 200.943 143.356 200.856C143.266 200.768 143.218 200.661 143.211 200.536L143.193 199.879C142.981 200.254 142.694 200.549 142.331 200.762C141.967 200.975 141.574 201.081 141.151 201.081C140.642 201.081 140.257 200.903 139.996 200.546C139.735 200.189 139.604 199.662 139.604 198.967ZM147.611 196.656C147.188 196.669 146.817 196.788 146.497 197.013C146.177 197.239 145.952 197.549 145.821 197.943V200.987H145.187V196.093H145.784V197.267C145.952 196.923 146.174 196.644 146.45 196.431C146.727 196.218 147.02 196.099 147.331 196.074C147.393 196.068 147.448 196.065 147.494 196.065C147.541 196.065 147.611 196.074 147.611 196.074V196.656ZM154.704 200.987H154.07V198.253C154.07 197.702 153.974 197.287 153.781 197.009C153.589 196.73 153.312 196.591 152.952 196.591C152.715 196.591 152.481 196.652 152.248 196.774C152.015 196.896 151.81 197.062 151.633 197.272C151.456 197.481 151.33 197.721 151.255 197.99V200.987H150.621V194.129H151.255V197.201C151.448 196.838 151.717 196.548 152.061 196.332C152.406 196.116 152.775 196.008 153.166 196.008C153.446 196.008 153.683 196.058 153.879 196.158C154.075 196.259 154.233 196.404 154.354 196.595C154.476 196.786 154.564 197.009 154.62 197.262C154.676 197.516 154.704 197.802 154.704 198.122V200.987ZM156.056 200.987V196.093H156.689V200.987H156.056ZM156.056 195.069V194.129H156.689V195.069H156.056ZM160.036 201.053C159.706 201.053 159.402 200.984 159.122 200.846C158.843 200.708 158.602 200.522 158.4 200.287C158.198 200.052 158.041 199.785 157.929 199.484C157.817 199.183 157.761 198.873 157.761 198.554C157.761 198.21 157.816 197.885 157.924 197.582C158.033 197.278 158.189 197.007 158.391 196.769C158.592 196.531 158.83 196.345 159.104 196.21C159.377 196.075 159.681 196.008 160.017 196.008C160.433 196.008 160.795 196.115 161.103 196.328C161.41 196.541 161.67 196.804 161.881 197.117V196.093H162.45V201.006C162.45 201.457 162.343 201.837 162.128 202.147C161.914 202.457 161.625 202.691 161.261 202.847C160.898 203.004 160.502 203.082 160.073 203.082C159.52 203.082 159.072 202.982 158.731 202.781C158.389 202.581 158.109 202.312 157.892 201.973L158.283 201.663C158.476 201.97 158.732 202.199 159.052 202.349C159.372 202.5 159.713 202.575 160.073 202.575C160.39 202.575 160.68 202.517 160.944 202.401C161.209 202.285 161.42 202.111 161.578 201.879C161.737 201.648 161.816 201.357 161.816 201.006V200.038C161.629 200.345 161.375 200.591 161.052 200.776C160.728 200.96 160.39 201.053 160.036 201.053ZM160.213 200.517C160.405 200.517 160.59 200.483 160.767 200.414C160.944 200.345 161.108 200.253 161.257 200.137C161.406 200.021 161.53 199.891 161.629 199.747C161.729 199.603 161.791 199.456 161.816 199.306V197.793C161.723 197.555 161.589 197.344 161.415 197.159C161.241 196.974 161.044 196.83 160.823 196.727C160.603 196.623 160.374 196.572 160.138 196.572C159.865 196.572 159.621 196.63 159.406 196.746C159.192 196.861 159.012 197.015 158.866 197.206C158.72 197.397 158.606 197.611 158.526 197.849C158.445 198.087 158.405 198.325 158.405 198.563C158.405 198.826 158.451 199.075 158.544 199.31C158.638 199.545 158.766 199.755 158.931 199.94C159.096 200.124 159.288 200.267 159.509 200.367C159.73 200.467 159.964 200.517 160.213 200.517ZM167.93 200.987H167.296V198.253C167.296 197.702 167.2 197.287 167.007 197.009C166.815 196.73 166.538 196.591 166.178 196.591C165.942 196.591 165.707 196.652 165.474 196.774C165.241 196.896 165.036 197.062 164.859 197.272C164.682 197.481 164.556 197.721 164.481 197.99V200.987H163.848V194.129H164.481V197.201C164.674 196.838 164.943 196.548 165.288 196.332C165.633 196.116 166.001 196.008 166.392 196.008C166.672 196.008 166.91 196.058 167.105 196.158C167.301 196.259 167.459 196.404 167.581 196.595C167.702 196.786 167.79 197.009 167.846 197.262C167.902 197.516 167.93 197.802 167.93 198.122V200.987ZM171.379 201.081C171.031 201.081 170.708 201.014 170.41 200.879C170.111 200.744 169.853 200.56 169.636 200.325C169.418 200.09 169.249 199.819 169.128 199.512C169.007 199.205 168.946 198.877 168.946 198.526C168.946 198.069 169.05 197.649 169.258 197.267C169.467 196.885 169.754 196.58 170.121 196.351C170.487 196.122 170.904 196.008 171.37 196.008C171.848 196.008 172.266 196.124 172.623 196.356C172.981 196.587 173.262 196.893 173.467 197.272C173.672 197.651 173.774 198.065 173.774 198.516C173.774 198.566 173.774 198.615 173.774 198.662C173.774 198.709 173.765 198.77 173.765 198.77H169.608C169.639 199.121 169.737 199.432 169.902 199.705C170.066 199.977 170.281 200.193 170.545 200.353C170.809 200.513 171.096 200.593 171.407 200.593C171.724 200.593 172.024 200.511 172.306 200.348C172.589 200.185 172.786 199.972 172.898 199.709L173.448 199.86C173.349 200.091 173.196 200.301 172.991 200.489C172.786 200.677 172.546 200.823 172.269 200.926C171.993 201.029 171.696 201.081 171.379 201.081ZM169.589 198.31H173.178C173.153 197.953 173.058 197.64 172.894 197.37C172.729 197.101 172.515 196.89 172.25 196.736C171.986 196.583 171.696 196.506 171.379 196.506C171.062 196.506 170.773 196.583 170.512 196.736C170.251 196.89 170.038 197.103 169.874 197.375C169.709 197.647 169.614 197.959 169.589 198.31ZM177.176 196.656C176.754 196.669 176.382 196.788 176.062 197.013C175.742 197.239 175.517 197.549 175.387 197.943V200.987H174.753V196.093H175.349V197.267C175.517 196.923 175.739 196.644 176.016 196.431C176.292 196.218 176.586 196.099 176.897 196.074C176.959 196.068 177.013 196.065 177.06 196.065C177.106 196.065 177.176 196.074 177.176 196.074V196.656ZM181.781 201.081C181.383 201.081 181.013 201.015 180.672 200.884C180.33 200.752 180.035 200.552 179.786 200.282L180.047 199.832C180.32 200.088 180.595 200.275 180.872 200.391C181.148 200.506 181.442 200.564 181.753 200.564C182.132 200.564 182.439 200.488 182.676 200.334C182.912 200.181 183.03 199.96 183.03 199.672C183.03 199.478 182.972 199.329 182.857 199.226C182.742 199.122 182.578 199.038 182.363 198.972C182.149 198.906 181.893 198.836 181.594 198.761C181.259 198.667 180.978 198.568 180.751 198.465C180.524 198.361 180.353 198.23 180.238 198.07C180.123 197.91 180.066 197.702 180.066 197.445C180.066 197.126 180.145 196.861 180.303 196.652C180.462 196.442 180.679 196.282 180.956 196.173C181.232 196.063 181.542 196.008 181.883 196.008C182.256 196.008 182.585 196.068 182.871 196.187C183.157 196.306 183.39 196.472 183.57 196.685L183.263 197.117C183.089 196.916 182.882 196.768 182.643 196.67C182.404 196.573 182.138 196.525 181.846 196.525C181.647 196.525 181.458 196.551 181.277 196.605C181.097 196.658 180.95 196.746 180.835 196.868C180.72 196.99 180.662 197.157 180.662 197.37C180.662 197.546 180.706 197.682 180.793 197.779C180.88 197.876 181.01 197.957 181.184 198.023C181.358 198.089 181.573 198.159 181.827 198.235C182.194 198.335 182.514 198.437 182.787 198.54C183.061 198.643 183.272 198.776 183.421 198.939C183.57 199.102 183.645 199.331 183.645 199.625C183.645 200.082 183.474 200.439 183.132 200.696C182.79 200.953 182.34 201.081 181.781 201.081ZM186.786 201.081C186.438 201.081 186.115 201.014 185.816 200.879C185.518 200.744 185.26 200.56 185.043 200.325C184.825 200.09 184.656 199.819 184.535 199.512C184.414 199.205 184.353 198.877 184.353 198.526C184.353 198.069 184.457 197.649 184.665 197.267C184.873 196.885 185.161 196.58 185.527 196.351C185.894 196.122 186.31 196.008 186.776 196.008C187.255 196.008 187.673 196.124 188.03 196.356C188.387 196.587 188.669 196.893 188.874 197.272C189.079 197.651 189.181 198.065 189.181 198.516C189.181 198.566 189.181 198.615 189.181 198.662C189.181 198.709 189.172 198.77 189.172 198.77H185.015C185.046 199.121 185.144 199.432 185.308 199.705C185.473 199.977 185.687 200.193 185.952 200.353C186.216 200.513 186.503 200.593 186.814 200.593C187.131 200.593 187.43 200.511 187.713 200.348C187.996 200.185 188.193 199.972 188.305 199.709L188.855 199.86C188.756 200.091 188.603 200.301 188.398 200.489C188.193 200.677 187.952 200.823 187.676 200.926C187.399 201.029 187.103 201.081 186.786 201.081ZM184.996 198.31H188.585C188.56 197.953 188.465 197.64 188.3 197.37C188.136 197.101 187.921 196.89 187.657 196.736C187.393 196.583 187.103 196.506 186.786 196.506C186.469 196.506 186.18 196.583 185.919 196.736C185.658 196.89 185.445 197.103 185.28 197.375C185.116 197.647 185.021 197.959 184.996 198.31ZM190.188 194.129H190.821V199.879C190.821 200.123 190.865 200.282 190.952 200.358C191.039 200.433 191.145 200.47 191.269 200.47C191.381 200.47 191.492 200.458 191.604 200.433C191.716 200.408 191.812 200.383 191.893 200.358L192.005 200.874C191.887 200.924 191.743 200.965 191.572 200.996C191.401 201.028 191.253 201.043 191.129 201.043C190.843 201.043 190.615 200.959 190.444 200.79C190.273 200.621 190.188 200.389 190.188 200.095V194.129ZM192.928 200.987V196.6H192.257V196.093H192.928V195.961C192.928 195.56 192.985 195.216 193.1 194.928C193.215 194.64 193.38 194.419 193.594 194.266C193.808 194.112 194.062 194.035 194.354 194.035C194.546 194.035 194.733 194.064 194.913 194.12C195.093 194.176 195.249 194.251 195.379 194.345L195.183 194.806C195.102 194.737 194.997 194.684 194.866 194.646C194.736 194.608 194.605 194.59 194.475 194.59C194.183 194.59 193.958 194.706 193.799 194.937C193.641 195.169 193.561 195.504 193.561 195.942V196.093H194.904V196.6H193.561V200.987H192.928Z" fill="#595959"/>
</g>
<defs>
<clipPath id="clip0_266_5918">
<rect width="266" height="239" fill="white"/>
</clipPath>
</defs>
</svg>
