<svg width="22" height="22" viewBox="0 0 22 22" fill="none" xmlns="http://www.w3.org/2000/svg">
<path d="M14.2082 16.5C14.2082 18.2719 12.7718 19.7083 10.9998 19.7083C9.22792 19.7083 7.7915 18.2719 7.7915 16.5" stroke="#12150E" stroke-width="1.5" stroke-linecap="round" stroke-linejoin="round"/>
<path d="M17.6285 16.5001H4.37146C3.47595 16.5001 2.75 15.7741 2.75 14.8786C2.75 14.4486 2.92083 14.0362 3.22492 13.732L3.77788 13.1791C4.2936 12.6634 4.58333 11.9639 4.58333 11.2346V8.70841C4.58333 5.16459 7.45618 2.29175 11 2.29175C14.5438 2.29175 17.4167 5.16458 17.4167 8.70841V11.2346C17.4167 11.9639 17.7064 12.6634 18.2221 13.1791L18.7751 13.732C19.0791 14.0362 19.25 14.4486 19.25 14.8786C19.25 15.7741 18.524 16.5001 17.6285 16.5001Z" stroke="#12150E" stroke-width="1.5" stroke-linecap="round" stroke-linejoin="round"/>
</svg>
